<?xml version="1.0" standalone="no"?>
<!DOCTYPE svg PUBLIC "-//W3C//DTD SVG 20010904//EN"
 "http://www.w3.org/TR/2001/REC-SVG-20010904/DTD/svg10.dtd">
<svg version="1.0" xmlns="http://www.w3.org/2000/svg"
 width="400.000000pt" height="400.000000pt" viewBox="0 0 400.000000 400.000000"
 preserveAspectRatio="xMidYMid meet">
<metadata>
Created by potrace 1.14, written by Peter Selinger 2001-2017
</metadata>
<g transform="translate(0.000000,400.000000) scale(0.100000,-0.100000)"
fill="#000000" stroke="none">
<path d="M0 2000 l0 -2000 2000 0 2000 0 0 2000 0 2000 -2000 0 -2000 0 0
-2000z m2321 1396 c37 -8 86 -24 109 -36 64 -33 136 -106 167 -169 26 -51 28
-65 26 -161 -1 -58 0 -113 3 -122 7 -22 51 -24 81 -3 55 39 26 -59 -38 -129
-27 -29 -73 -65 -106 -81 -50 -26 -69 -30 -139 -30 -71 0 -85 3 -122 27 -64
43 -76 75 -77 198 0 123 -16 163 -70 186 -41 17 -58 17 -108 3 -128 -35 -188
-200 -121 -337 38 -79 162 -198 312 -301 141 -96 219 -175 266 -269 62 -124
71 -164 71 -307 -1 -114 -4 -140 -28 -210 -62 -187 -208 -365 -358 -439 -100
-48 -175 -66 -289 -67 -192 -1 -329 49 -441 160 -76 77 -120 158 -145 268 -27
120 -5 275 57 396 16 32 29 60 29 62 0 12 -65 3 -91 -12 -67 -40 -46 38 33
122 170 182 413 160 474 -42 17 -57 14 -80 -32 -262 -41 -161 -44 -233 -11
-282 47 -70 153 -105 232 -75 58 23 137 109 164 180 46 122 37 239 -28 371
-51 102 -129 188 -281 309 -129 104 -195 177 -242 270 -26 52 -32 75 -36 156
-5 109 10 186 57 278 106 209 336 352 581 360 19 1 65 -5 101 -12z m-843
-2362 c28 -19 31 -84 5 -110 -17 -17 -18 -15 -21 37 -4 68 -15 80 -46 50 -51
-48 -87 -185 -64 -243 19 -47 73 -4 85 65 8 52 33 50 33 -4 0 -32 -6 -47 -30
-70 -25 -26 -36 -30 -72 -27 -39 3 -45 7 -62 42 -17 34 -18 46 -8 99 13 70 49
129 95 157 39 24 56 25 85 4z m150 -116 c18 -18 15 -105 -5 -138 -17 -30 -51
-50 -83 -50 -58 0 -51 155 7 189 24 14 66 14 81 -1z m104 2 c2 -7 15 -6 36 2
26 10 37 10 52 0 15 -9 26 -10 40 -2 27 15 56 12 71 -6 10 -13 10 -27 0 -77
-9 -41 -9 -63 -2 -65 20 -7 -2 -32 -29 -32 -36 0 -41 15 -25 83 14 59 12 67
-16 67 -20 0 -26 -13 -35 -81 -6 -43 -5 -51 7 -44 12 8 12 6 0 -9 -9 -10 -25
-16 -40 -14 -29 3 -31 14 -16 101 7 47 7 49 -16 45 -19 -2 -25 -13 -36 -57
-11 -41 -11 -56 -2 -61 19 -12 0 -30 -32 -30 -26 0 -29 3 -29 31 0 16 5 51 12
77 9 35 9 47 -1 50 -9 3 -9 7 0 18 13 16 56 19 61 4z m385 -20 c15 -28 9 -79
-12 -121 -16 -30 -65 -54 -94 -46 -17 4 -21 -2 -26 -37 -4 -23 -5 -47 -3 -55
2 -7 -5 -18 -14 -24 -14 -9 -21 -8 -35 6 -16 16 -16 23 13 141 23 91 28 128
20 136 -18 18 11 28 78 27 54 -2 62 -5 73 -27z m203 20 c0 -5 -7 -39 -16 -77
-10 -43 -12 -69 -5 -71 5 -2 7 -10 4 -18 -3 -9 -18 -14 -42 -14 -20 1 -48 -2
-63 -6 -21 -5 -29 -1 -39 18 -25 46 -3 144 38 167 22 12 123 12 123 1z m82 0
c2 -7 15 -6 36 2 24 9 37 10 50 2 18 -12 19 -29 7 -113 -7 -45 -6 -53 6 -46
12 8 12 6 0 -9 -9 -10 -25 -16 -40 -14 -29 3 -31 14 -16 101 7 47 7 49 -16 45
-19 -2 -25 -13 -36 -57 -11 -41 -11 -56 -2 -61 19 -12 0 -30 -32 -30 -26 0
-29 3 -29 31 0 16 5 51 12 77 9 35 9 47 -1 50 -9 3 -9 7 0 18 13 16 56 19 61
4z m185 -6 c3 -9 1 -42 -5 -73 -11 -62 -4 -78 26 -62 25 13 51 109 33 121 -9
5 -8 10 3 19 24 20 51 9 54 -22 3 -28 -32 -187 -49 -218 -26 -49 -73 -64 -103
-33 -21 20 -20 36 2 33 35 -3 43 2 58 36 17 42 18 53 2 37 -18 -18 -77 -15
-85 4 -3 9 -1 44 5 78 8 41 8 62 1 64 -16 6 11 32 33 32 10 0 21 -7 25 -16z
m-1327 -84 c0 -6 -42 -10 -105 -10 -63 0 -105 4 -105 10 0 6 42 10 105 10 63
0 105 -4 105 -10z m1670 0 c0 -6 -42 -10 -105 -10 -63 0 -105 4 -105 10 0 6
42 10 105 10 63 0 105 -4 105 -10z"/>
<path d="M1557 865 c-20 -43 -23 -109 -4 -103 19 6 47 69 47 106 0 43 -22 42
-43 -3z"/>
<path d="M2035 876 c-17 -26 -25 -99 -12 -112 14 -14 37 7 47 46 20 75 -2 116
-35 66z"/>
<path d="M2206 860 c-19 -49 -21 -103 -3 -98 19 6 47 69 47 106 0 45 -24 41
-44 -8z"/>
</g>
</svg>
